<svg width="26" height="20" xmlns="http://www.w3.org/2000/svg">

 <g>
  <title>Layer 1</title>
  <path id="svg_4" d="m0.95152,5.19747l0,0c2.2098,0 4.00119,-1.15108 4.00119,-2.571l16.00429,0l0,0c0,1.41993 1.7914,2.571 4.00119,2.571l0,10.2837l0,0c-2.2098,0 -4.00119,1.15108 -4.00119,2.571l-16.00429,0c0,-1.41993 -1.7914,-2.571 -4.00119,-2.571l0,-10.2837z" stroke-width="0.3" stroke="#000" fill="#fff"/>
  <path id="svg_8" d="m5.28715,3.6227l-0.13356,13.68948" opacity="undefined" stroke-dasharray="2,2" stroke-width="0.2" stroke="#000" fill="none"/>
  <line stroke-dasharray="2,2" id="svg_10" y2="17.31219" x2="20.74624" y1="3.6227" x1="20.84641" stroke-width="0.2" stroke="#000" fill="none"/>
  <text font-weight="bold" xml:space="preserve" text-anchor="start" font-family="Noto Sans JP" font-size="3.3" id="svg_11" y="11.90317" x="5.92154" stroke-dasharray="2,2" stroke-width="0" stroke="#000" fill="#000000">TICKET</text>
  <path id="svg_15" d="m11.77857,7.23474l0.91826,0l0.28375,-0.82898l0.28375,0.82898l0.91826,0l-0.74288,0.51233l0.28376,0.82898l-0.74288,-0.51234l-0.74288,0.51234l0.28376,-0.82898l-0.74288,-0.51233z" stroke-width="0.2" stroke="#000" fill="none"/>
  <path id="svg_16" d="m11.77857,7.23474l0.91826,0l0.28375,-0.82898l0.28375,0.82898l0.91826,0l-0.74288,0.51233l0.28376,0.82898l-0.74288,-0.51234l-0.74288,0.51234l0.28376,-0.82898l-0.74288,-0.51233z" stroke-width="0.2" stroke="#000" fill="none"/>
  <path id="svg_17" d="m15.21763,7.19462l0.68869,0l0.21281,-0.68869l0.21281,0.68869l0.68869,0l-0.55716,0.42563l0.21282,0.68869l-0.55716,-0.42564l-0.55716,0.42564l0.21282,-0.68869l-0.55716,-0.42563z" stroke-width="0.2" stroke="#000" fill="none"/>
  <path id="svg_18" d="m18.15586,6.98268l0.48463,0l0.14976,-0.51014l0.14976,0.51014l0.48463,0l-0.39208,0.31528l0.14976,0.51014l-0.39208,-0.31529l-0.39208,0.31529l0.14976,-0.51014l-0.39208,-0.31528z" stroke-width="0.2" stroke="#000" fill="none"/>
  <path transform="rotate(-180, 16.0857, 13.8515)" id="svg_19" d="m15.18424,13.6387l0.68869,0l0.21281,-0.68869l0.21281,0.68869l0.68869,0l-0.55716,0.42563l0.21282,0.68869l-0.55716,-0.42564l-0.55716,0.42564l0.21282,-0.68869l-0.55716,-0.42563z" stroke-width="0.2" stroke="#000" fill="none"/>
  <path transform="rotate(-180, 18.7235, 13.8515)" id="svg_20" d="m18.08908,13.69387l0.48463,0l0.14976,-0.51014l0.14976,0.51014l0.48463,0l-0.39208,0.31528l0.14976,0.51014l-0.39208,-0.31529l-0.39208,0.31529l0.14976,-0.51014l-0.39208,-0.31528z" stroke-width="0.2" stroke="#000" fill="none"/>
  <path transform="rotate(-180, 12.9138, 13.8348)" id="svg_21" d="m11.71179,13.57865l0.91826,0l0.28375,-0.82898l0.28375,0.82898l0.91826,0l-0.74288,0.51233l0.28376,0.82898l-0.74288,-0.51234l-0.74288,0.51234l0.28376,-0.82898l-0.74288,-0.51233z" stroke-width="0.2" stroke="#000" fill="none"/>
  <path transform="rotate(-180, 9.842, 13.9517)" id="svg_22" d="m8.9405,13.73886l0.68869,0l0.21281,-0.68869l0.21281,0.68869l0.68869,0l-0.55716,0.42563l0.21282,0.68869l-0.55716,-0.42564l-0.55716,0.42564l0.21282,-0.68869l-0.55716,-0.42563z" stroke-width="0.2" stroke="#000" fill="none"/>
  <path transform="rotate(-180, 7.23766, 13.9183)" id="svg_23" d="m6.60327,13.76065l0.48463,0l0.14976,-0.51014l0.14976,0.51014l0.48463,0l-0.39208,0.31528l0.14976,0.51014l-0.39208,-0.31529l-0.39208,0.31529l0.14976,-0.51014l-0.39208,-0.31528z" stroke-width="0.2" stroke="#000" fill="none"/>
  <path id="svg_24" d="m6.40294,7.28319l0.48463,0l0.14976,-0.51014l0.14976,0.51014l0.48463,0l-0.39208,0.31528l0.14976,0.51014l-0.39208,-0.31529l-0.39208,0.31529l0.14976,-0.51014l-0.39208,-0.31528z" stroke-width="0.2" stroke="#000" fill="none"/>
  <path id="svg_25" d="m8.9405,7.22801l0.68869,0l0.21281,-0.68869l0.21281,0.68869l0.68869,0l-0.55716,0.42563l0.21282,0.68869l-0.55716,-0.42564l-0.55716,0.42564l0.21282,-0.68869l-0.55716,-0.42563z" stroke-width="0.2" stroke="#000" fill="none"/>
 </g>
</svg>  