<?xml version="1.0" standalone="no"?>
<!DOCTYPE svg PUBLIC "-//W3C//DTD SVG 20010904//EN"
 "http://www.w3.org/TR/2001/REC-SVG-20010904/DTD/svg10.dtd">
<svg version="1.0" xmlns="http://www.w3.org/2000/svg"
 width="26" height="20" viewBox="0 0 26 20"
 preserveAspectRatio="xMidYMid meet">

<g transform="translate(0.000000,26) scale(0.100000,-0.100000)"
fill="#FFFFFF" stroke="none">
<path d="M2722 5043 c-102 -106 -107 -116 -92 -153 27 -66 83 -67 151 -3 l50
47 155 -155 155 -155 -25 -44 c-35 -63 -48 -123 -47 -210 1 -169 92 -309 250
-384 62 -29 73 -31 176 -31 104 0 114 2 180 33 l69 33 155 -156 156 -155 -144
-144 c-132 -132 -153 -149 -255 -205 l-111 -60 -353 352 c-194 194 -457 459
-584 590 l-231 237 47 50 c51 55 57 83 25 124 -15 19 -30 26 -53 26 -31 0
-110 -77 -1045 -1019 -939 -947 -1011 -1021 -1011 -1053 0 -30 21 -54 228
-261 172 -172 233 -227 252 -227 13 0 49 17 80 38 70 49 108 62 185 62 72 0
142 -30 194 -84 l33 -34 -23 -15 c-13 -8 -139 -76 -279 -152 -140 -75 -258
-142 -263 -148 -25 -40 -18 -58 123 -324 78 -148 151 -278 163 -291 25 -27 45
-27 117 -2 110 39 222 15 297 -62 65 -68 78 -100 78 -198 0 -102 -19 -144 -92
-209 -26 -24 -58 -52 -70 -63 -13 -11 -23 -29 -23 -41 0 -29 276 -547 306
-574 14 -13 34 -23 46 -23 30 0 597 309 614 335 9 14 12 33 8 49 -7 28 -48 66
-71 66 -8 0 -126 -61 -263 -135 -137 -74 -252 -135 -254 -135 -6 0 -206 374
-206 385 0 4 11 16 24 26 13 10 40 43 59 72 204 307 -23 702 -388 674 -38 -3
-77 -8 -85 -11 -11 -4 -40 42 -117 186 -56 106 -100 195 -97 199 2 4 79 47
172 97 203 108 2433 1311 2585 1393 59 33 111 59 115 59 4 0 54 -86 109 -192
l102 -192 -45 -48 c-25 -27 -60 -79 -77 -116 -30 -63 -32 -74 -32 -177 0 -103
2 -114 32 -177 83 -176 266 -278 447 -250 39 6 74 8 78 4 4 -4 52 -91 106
-194 l99 -187 -1026 -552 c-564 -303 -1034 -561 -1043 -571 -39 -44 -8 -122
48 -121 30 0 2142 1131 2176 1165 10 10 18 30 18 45 0 28 -264 539 -297 576
-20 21 -47 20 -149 -8 -51 -14 -70 -15 -116 -6 -137 29 -226 135 -228 272 0
103 37 174 126 240 45 33 54 45 54 71 0 20 -42 111 -125 268 -69 130 -125 241
-125 246 0 4 70 78 155 164 139 140 155 160 155 190 0 32 -20 54 -228 262
-175 176 -233 228 -253 228 -13 0 -48 -18 -78 -40 -65 -49 -116 -64 -203 -58
-143 11 -248 123 -250 266 -1 75 15 123 65 194 29 41 38 62 34 80 -4 13 -106
126 -229 251 -270 276 -252 268 -366 150z m678 -1814 c0 -3 -39 -26 -87 -52
-49 -26 -125 -67 -171 -92 -53 -28 -84 -40 -86 -32 -1 7 -10 35 -19 63 -16 48
-16 54 -1 90 21 50 21 138 0 189 -23 53 -81 113 -135 137 -54 25 -147 26 -211
4 -25 -9 -48 -16 -51 -16 -3 0 3 30 12 68 22 84 23 115 4 178 -20 66 -64 117
-131 150 -66 32 -147 36 -206 11 -34 -14 -41 -15 -75 0 -20 8 -63 15 -95 15
-112 0 -212 -73 -243 -176 -20 -65 -19 -98 4 -179 10 -37 16 -67 12 -67 -3 0
-28 7 -55 15 -67 21 -162 19 -211 -4 -58 -26 -121 -99 -139 -162 -20 -67 -20
-91 3 -159 18 -51 18 -56 3 -85 -10 -19 -16 -54 -16 -95 0 -79 33 -151 91
-199 39 -32 116 -61 163 -61 25 0 116 21 152 35 17 7 17 5 2 -36 -10 -26 -17
-77 -18 -124 -1 -80 5 -102 48 -167 l18 -27 -34 -21 c-70 -43 -43 -64 -461
356 l-385 388 591 599 591 598 568 -568 c312 -312 568 -571 568 -574z m-1217
558 c18 -8 38 -21 46 -30 19 -24 83 -22 106 3 49 55 140 42 172 -24 14 -31 15
-43 4 -90 -11 -51 -57 -152 -116 -256 -31 -56 -31 -74 0 -105 33 -34 67 -31
134 9 92 55 158 86 221 102 54 14 63 14 93 -1 65 -30 80 -110 33 -166 -17 -19
-26 -43 -26 -64 0 -21 9 -45 26 -64 68 -81 1 -194 -103 -175 -53 9 -134 44
-228 98 -44 25 -90 46 -103 46 -29 0 -72 -42 -72 -71 0 -11 24 -64 54 -117 85
-150 88 -137 -51 -211 -65 -35 -151 -82 -191 -103 l-72 -40 -35 35 c-26 26
-35 43 -35 69 0 48 32 137 82 227 67 124 70 130 63 151 -9 29 -45 60 -69 60
-12 0 -57 -21 -101 -46 -211 -121 -312 -131 -352 -37 -17 43 -11 76 23 116 30
35 32 87 4 112 -25 23 -43 79 -35 107 4 13 19 35 33 51 48 51 151 31 313 -63
100 -58 137 -63 168 -24 12 15 21 33 21 41 0 7 -25 60 -55 117 -58 108 -95
203 -95 243 0 39 29 83 63 98 40 18 41 18 80 2z m-476 -1470 c-1 -4 -60 -39
-131 -76 l-129 -69 -54 59 c-97 104 -197 144 -342 137 -71 -3 -99 -10 -156
-36 l-69 -33 -155 156 -156 155 230 231 230 230 367 -373 c202 -205 366 -377
365 -381z"/>
<path d="M2427 2331 c-659 -356 -1203 -654 -1208 -662 -26 -41 12 -119 58
-119 10 0 95 41 188 91 1641 882 2233 1204 2248 1222 37 42 -1 118 -57 116
-21 -1 -425 -214 -1229 -648z"/>
<path d="M3563 2435 c-14 -10 -31 -43 -45 -88 -12 -39 -23 -74 -25 -76 -1 -2
-33 6 -72 18 -88 27 -97 26 -126 -4 -54 -53 -20 -113 80 -140 36 -9 67 -20 69
-24 2 -3 -5 -33 -15 -66 -10 -33 -19 -72 -19 -86 0 -32 38 -69 71 -69 44 0 67
26 90 103 11 40 22 73 23 75 2 1 29 -7 61 -18 72 -25 107 -25 133 -2 60 50 27
111 -79 143 -38 11 -69 24 -69 27 0 4 9 36 20 72 24 79 19 115 -20 135 -36 19
-50 19 -77 0z"/>
<path d="M3075 2170 c-31 -12 -41 -29 -60 -95 -10 -33 -21 -64 -25 -68 -4 -5
-41 2 -83 14 -72 21 -78 21 -101 5 -30 -19 -42 -59 -30 -95 7 -21 24 -31 89
-53 44 -15 81 -28 81 -28 1 0 -7 -27 -17 -61 -10 -33 -19 -74 -19 -90 0 -57
67 -89 116 -55 13 9 29 44 43 89 l22 75 62 -19 c79 -24 112 -24 137 1 25 25
26 81 2 103 -10 9 -48 26 -85 37 -37 11 -67 26 -67 33 0 7 9 40 20 75 22 69
17 99 -22 126 -25 18 -33 19 -63 6z"/>
<path d="M2575 1900 c-30 -11 -40 -27 -64 -102 -13 -38 -26 -68 -31 -68 -4 0
-37 9 -73 20 -66 20 -88 19 -119 -8 -20 -17 -24 -63 -8 -92 6 -10 39 -28 77
-40 38 -13 72 -26 76 -30 5 -4 0 -40 -12 -80 -20 -73 -19 -92 7 -122 20 -24
77 -23 101 1 10 10 28 50 40 89 l21 70 61 -19 c33 -10 74 -19 90 -19 57 0 89
67 55 116 -9 13 -44 29 -89 43 l-75 22 19 62 c10 34 19 76 19 93 0 48 -51 82
-95 64z"/>
<path d="M3022 1246 c-657 -353 -1202 -650 -1213 -659 -47 -41 -3 -136 58
-124 15 3 539 281 1163 617 1353 729 1257 676 1271 701 22 41 -18 109 -63 109
-13 0 -560 -290 -1216 -644z"/>
<path d="M2080 1633 c-33 -12 -51 -39 -70 -105 -12 -37 -26 -68 -33 -68 -7 0
-40 9 -75 20 -70 22 -101 16 -127 -23 -18 -28 -12 -67 13 -90 10 -9 44 -23 77
-32 33 -10 64 -21 68 -25 4 -4 -2 -41 -14 -83 l-23 -77 20 -27 c28 -37 77 -43
109 -13 13 13 31 49 41 86 19 71 24 74 94 49 23 -8 57 -15 75 -15 62 0 98 77
56 119 -10 10 -50 28 -90 40 -39 12 -71 23 -71 24 0 1 9 31 20 65 11 35 20 74
20 87 0 42 -52 82 -90 68z"/>
</g>
</svg>
